<?xml version="1.0" standalone="no"?>
<!DOCTYPE svg PUBLIC "-//W3C//DTD SVG 20010904//EN"
 "http://www.w3.org/TR/2001/REC-SVG-20010904/DTD/svg10.dtd">
<svg version="1.0" xmlns="http://www.w3.org/2000/svg"
 width="256.000000pt" height="256.000000pt" viewBox="0 0 256.000000 256.000000"
 preserveAspectRatio="xMidYMid meet">

<g transform="translate(0.000000,256.000000) scale(0.100000,-0.100000)"
fill="#000000" stroke="none">
<path d="M1133 2409 c-471 -61 -849 -406 -964 -879 -33 -136 -33 -364 0 -500
64 -266 211 -495 417 -651 600 -457 1462 -225 1747 471 61 149 81 253 81 430
0 134 -4 169 -26 260 -55 218 -149 387 -300 541 -247 250 -606 374 -955 328z
m222 -138 c95 -44 206 -209 261 -387 l12 -41 -120 -7 c-145 -7 -370 -6 -490 3
l-87 6 25 70 c77 224 208 375 324 375 19 0 53 -9 75 -19z m-385 -36 c0 -3 -11
-22 -24 -43 -43 -68 -86 -161 -115 -248 -16 -47 -30 -87 -32 -89 -6 -5 -270
25 -299 34 -24 8 -23 10 55 90 93 96 208 177 320 226 80 35 95 39 95 30z m755
-49 c109 -54 196 -119 290 -216 69 -72 70 -73 45 -81 -29 -10 -293 -39 -299
-34 -2 2 -16 42 -32 89 -31 92 -81 197 -124 260 l-26 38 28 -6 c15 -4 69 -26
118 -50z m-1112 -442 c172 -20 164 -15 147 -89 -5 -22 -15 -102 -21 -177 l-12
-138 -229 0 c-186 0 -228 3 -228 14 0 76 54 273 101 369 22 45 26 48 54 44 16
-3 101 -13 188 -23z m1581 -34 c42 -93 65 -168 81 -259 8 -46 15 -90 15 -97 0
-11 -42 -14 -228 -14 l-229 0 -12 138 c-6 75 -16 155 -21 177 -16 69 -14 75
28 76 20 0 96 8 167 18 72 10 140 19 151 20 17 1 27 -12 48 -59z m-1049 -4
c116 -4 278 -3 360 2 83 4 151 8 152 7 7 -3 33 -186 39 -273 l7 -102 -422 0
-421 0 0 43 c0 54 17 205 32 280 8 45 14 57 27 53 9 -3 111 -7 226 -10z m-411
-578 c4 -51 14 -138 22 -192 7 -55 14 -101 14 -103 0 -2 -13 -3 -30 -3 -16 0
-100 -9 -186 -20 -126 -16 -159 -18 -166 -8 -40 64 -99 253 -112 361 l-7 57
229 0 229 0 7 -92z m962 -10 c-6 -87 -32 -270 -39 -273 -1 -1 -88 3 -194 8
-108 4 -272 4 -375 0 -101 -5 -184 -9 -185 -8 -7 3 -33 186 -39 273 l-7 102
423 0 423 0 -7 -102z m588 45 c-13 -108 -72 -297 -112 -361 -7 -10 -40 -8
-166 8 -86 11 -170 20 -186 20 -33 0 -36 9 -20 75 5 22 15 102 21 178 l12 137
229 0 229 0 -7 -57z m-767 -440 l111 -6 -30 -86 c-75 -215 -204 -361 -318
-361 -121 0 -264 173 -336 407 l-13 42 77 4 c153 6 399 7 509 0z m-687 -105
c33 -98 89 -216 128 -267 l25 -34 -29 7 c-55 13 -209 94 -274 144 -78 59 -205
190 -195 200 7 7 278 41 303 39 7 -1 26 -41 42 -89z m1105 71 c167 -17 164
-12 70 -109 -44 -45 -118 -108 -166 -139 -80 -54 -235 -128 -246 -118 -2 3 7
23 20 44 53 84 107 209 143 331 2 9 15 11 36 8 18 -3 83 -11 143 -17z"/>
</g>
</svg>
