<?xml version="1.0" encoding="UTF-8"?>
<svg xmlns="http://www.w3.org/2000/svg" version="1.1" viewBox="0 0 612 792">
  <defs>
    <style>
      .cls-1 {
        fill: #2d869e;
      }

      .cls-2 {
        fill: #fdfdf9;
      }
    </style>
  </defs>
  <!-- Generator: Adobe Illustrator 28.7.1, SVG Export Plug-In . SVG Version: 1.2.0 Build 142)  -->
  <g>
    <g id="Layer_1">
      <g id="Layer_1-2" data-name="Layer_1">
        <g>
          <path class="cls-1" d="M305.1,660.9c-146.1-.4-264.8-118.3-264.5-265.2.2-146.2,118.6-264.4,264.9-264.3,146.3.1,264.9,118.9,264.6,265-.3,146.1-119,264.5-265,264.5ZM203.5,620.3c0,.8,0,1.6,0,2.3,77.4,31.8,153.6,29.7,226.8-12.7,60.6-35,98.5-87.9,115.7-155.8-1.6,0-2.9.3-4,1-3.2,1.9-6.2,4.2-9.4,6-7.8,4.2-14.5,9.7-18.5,17.8-4.5,9.1-10.9,16.7-18.5,23.2-13.8,11.8-26.6,11.8-39.7,1.4-4.5-3.6-5.3-8.6-1.8-13.1,3-3.9,7-7,10.3-10.7,1.8-2,3.7-4.1,4.6-6.5,2.6-7.2,3-15.4,8.9-21.3,1.6-1.6,3.4-3.8,5.3-4.1,1.3-.2,3.1,2.5,4.5,4.1,1.8,2,3.2,4.5,5.4,6,1.5,1,4.1,1.4,5.7.8,1.3-.5,2.4-3.1,2.4-4.7-.1-4.6,1.2-9.2-1.7-13.9-2.8-4.5-4.3-9.8-6.5-14.8-2.7-6.1-5.2-12.4-8.3-18.3-2.2-4.2-4.7-8.5-8.1-11.7-6.1-5.6-12.8-10.5-19.4-15.6-1.9-1.5-4.3-2.3-6.6-3.5-.5,2.4-.5,4.4-1.3,5.7-1.1,1.7-2.9,3.7-4.6,4-13.8,2.2-27.7,1.9-41.6,1-1.4,0-2.7,0-4.1.1-4.4.4-8.9.7-13.3,1.2-4.5.5-9.1,1-13.5,1.9-.9.2-2.1,1.8-2.3,2.9-1.6,8.4-3.6,16.8-4.2,25.3-.8,10.2-3.4,19.8-6.5,29.4-1.6,5.1-.1,6.8,5.2,6.6,9.6-.3,19.2-.5,28.8-.4,2.2,0,4.9.9,6.4,2.4,1.5,1.4,2.9,4.2,2.5,6-.3,1.4-3.4,2.7-5.3,3.1-6,1-12,1.6-18,2.1-6.7.5-13.4.4-20,1.2-1.6.2-3.9,2.4-4.4,4.1-2,7.3-3.5,14.7-5.1,22-1.6,7.3-3.1,14.6-4.5,21.9-1.7,9.3-3.8,18.5-4.8,27.9-1.1,9.7-5.4,13.1-14.7,10.5-3.2-.9-5.5-3-5.4-5.9.2-7.7.6-15.4,1.9-23,1.5-8.5,4-16.9,6.1-25.3.8-3.1,1.4-6.3,2.2-9.5,1.4-5.5,3.2-10.9,4.4-16.5,1.9-9,3.4-18,5.2-27,2.2-10.9,4.5-21.9,7-32.7,1-4.5,2.8-8.8,4.1-13.2.7-2.5.5-4.5-2.8-5.3-6.1-1.7-12.2-3.7-18.2-5.7-3.4-1.1-6.6-2.8-10-3.8-4-1.1-8.1-1.6-12.1-2.5-2-.5-4-2.1-5.9-1.9-6.3.5-11.9-1.6-17.4-4.1-5.2-2.4-8.5-6.5-8-12.7.2-2.5,1-5.1.5-7.4-1.1-5.4,1.9-7.9,5.8-10.1,6.3-3.6,7.2-6,6.1-13.5-1.2-8.1-.3-15.6,6.5-21.4,2.2-1.8,4.2-3.9,6.3-5.8,6.9-6.2,15-10.8,20.6-18.5,5.8-7.9,7.8-15.9,3.5-25-3.7-7.8-7.5-15.6-10.8-23.5-2.9-7.1,3.9-15.7,11-15,2.7.3,5.8,0,8.3-1,5.3-2.3,10.2-5.5,15.5-8,5.2-2.5,10.5-4.5,16.4-1.4,2.6,1.4,5.6,1.8,8.4,2.8,5.5,2.1,11.5,3.4,16.4,6.5,9.9,6.2,20,9.5,31.8,8,3.1-.4,6.2,0,9.4,0,1.1,0,2.2.3,3.3.5,6.4,1.4,12.7,2.8,19.1,4.2,2.5.6,5.1,1.3,7.7,1.5,5.6.5,11.2,2.1,16.5-1.9,6.7-5.1,9-2.7,11.5,3.5,2,5.1,4.5,5.7,9.5,2-.8-1.3-1.5-2.8-2.5-3.9-3.4-4-6.8-8-10.4-11.8-48.3-50.5-107.3-76.9-177.1-78.4-44.4-1-86.1,9.7-124.8,31.4-28.8,16.1-53.3,37.2-73.8,63-1.7,2.2-4.2,4.2-.8,7.2.6.5.2,2.1.1,3.2-.8,8.2,4.1,13,11.8,10.9,5.8-1.6,11.2-4.4,16.6-7,4.6-2.3,9.6-1.3,9.7,3.1.2,6.1,4.2,9.8,6.8,14.5,3.1,5.6,8.5,10.3,8,17.6,0,.8,1.5,2.2,2.6,2.4,10.8,2.7,21.3,1.4,31.3-3.4,5.3-2.6,8.2,1.2,11.5,3.6,2.8,2.1,1.6,4.8.5,7.5-1.1,2.7-.4,5,2.5,5.6,7.9,1.8,15.5,5.5,24,4.6,2.7-.3,4.5.9,5.6,3.4.9,2.2,2.5,4.1,3.1,6.4.5,2.1.6,4.6-.2,6.5-1.2,2.9-3.9,5.2-5.1,8.1-2,5-3.1,10.4-4.9,15.5-1.2,3.2-2.5,6.9-4.9,8.9-4.8,4-7.7,8.8-10.1,14.4-2.8,6.7-.2,11.5,7,12.3,2.6.2,5.1,1,7.6,1.5,2.4.5,4.4.6,5.1-2.6,1.7-8.1,3.8-16.2,5.5-24.3,3.7-18.3,7.4-36.7,10.9-55,1.5-7.9,2.8-15.9,4.5-23.8,1.3-6.3,8.5-8.7,14-5.1,3.9,2.5,4.8,6.6,4.6,10.4-.3,7.8-1.4,15.5-2.4,23.3-.6,4.9-1.3,9.9-2.2,14.7-2.3,12.1-4.7,24.1-7.1,36.1-.4,1.8-.7,3.6-1.1,5.5-1.6,6.8-3.3,13.5-4.6,20.3-.2,1.2.7,3.2,1.7,3.9,2.6,1.8,5.5,3.4,8.5,4.5,5.8,2.1,9.5,6.1,9.4,11.6-.1,6.6,2.1,7.3,7.8,7.9,6.3.6,6.3.4,7.3,6.6.8,5.2.4,6-4.5,7.6-3,1-3.8,3.5-2,6.2,1.6,2.4,3.8,2.8,6.5,2.6,7.9-.4,15.3,1.3,21.5,6.7,3,2.6,2.2,6-1.5,7.6-1.8.8-3.9,1.2-5.6,2.1-1,.6-2.4,2.2-2.2,3,1.1,4.9,2.3,9.9,3.9,14.6,1,3,.9,4.9-2.2,6.4-5.8,2.8-11.4,5.8-17.1,8.7-3,1.5-4.2,3.8-4.2,7.2,0,5.6-2.2,8.8-7.7,9.7-4.2.7-8.6.2-12.9.3-5.3,0-11.4-1.4-15.8.7-7.6,3.5-12.6,10.2-13.6,19.2-.9,8-2.6,15.5-11.2,19.5-8,3.8-9.8,15.2-3.9,21.7,1.4,1.6,3.2,2.8,4.5,4.5,2.9,4,6.5,7.8,8.2,12.2,3.8,9.8,2,19.7-1.8,29.3-2.7,6.8-12.8,11-18.9,8.8-3.4-1.2-7.4-1.1-11.1-1.6h0ZM57.3,392.2c0,40.9,7.9,76.4,23.8,110.1,1,2,1.8,2.5,3.5,1,3.2-2.8,6.3-5.5,9.5-8.2,2-1.7,4.1-3.4,7-2.2,7.6,3.2,10.5,13.1,5.8,19.7-2.8,3.9-6.1,7.5-8.5,11.7-1.1,1.8-1.5,5.2-.5,6.8,8.6,14.1,18.1,27.5,31,38,1.4,1.2,2.5,2.7,3.6,4.2,5.1,6.8,10.9,12,20.3,9.4.5-.1,1-.3,1.5-.3,3-.1,5.8.2,6.5,3.9,1.4,6.7,5.3,11.3,11,15.1,3,2,5.1,5.2,7.7,7.8.5.5,1,1.1,1.6,1.5,3.9,2.2,7.8,4.5,11.9,6.3,1.6.7,3.7,0,5.6,0,5,0,10.3-1.1,15,.2,6.5,1.7,12,.8,15.2-5.1,1.4-2.6,2.1-5.7,3.1-8.6,2.5-8.2,1.7-16-3.1-23.1-2.1-3.1-5.1-5.5-7.4-8.4-2.4-3.1-5.6-6.1-6.6-9.7-2-6.4,3.6-18.1,9.9-21.2,5.8-2.9,7.5-7.5,8.5-13.3.9-5,2.1-10.5,5-14.5,7.4-10.6,15.4-14.6,27.7-11.7,3.2.8,6.6,1.2,9.9,1.3,5.1,0,7.5-2.5,7.8-7.4.3-3.6,1.2-7,4.5-9,4.1-2.5,8.2-4.9,12.6-6.9,5.6-2.5,6.3-3.2,5.2-7.1-1-3.6-1.8-7.4-2.3-11.2-.5-4.4-1.1-5.2-5.4-5.4-6.3-.3-12.9.5-18.8-1-8.4-2.1-15.7,1.8-23.5,2.3-4.2.2-8.7.6-12.4,2.3-6.3,2.9-11.2.8-16.4-2.2-3.6-2.1-4.5-5.1-3.6-8.8,2-8.5,4-17.1,6.2-25.6.8-3.2,2.1-6.3,2.9-9.6,1.4-5.6,2.6-11.3,3.5-17,.1-.8-1.9-2.5-3.1-2.9-2.4-.7-4.9-.8-7.4-1-9.4-.8-14.1-7.6-11.3-16.5.7-2.1,1.5-4.2,2.6-6.1,1.6-2.8,2.8-6.2,5.2-7.8,5.4-3.6,7.6-9,8.6-14.6,1.3-6.9,3.9-12.9,8-18.4,1.1-1.5,1.6-4.5.9-6.1-1.2-2.6-2-6.1-6.5-6.2-3.9,0-7.8-1-11.7-1.7-3.3-.6-6.6-1.3-9.8-2.2-3.8-1.1-7-3.1-7.6-7.3-.2-1.8.7-3.8.8-5.7.1-2.4-3.5-5.7-5.6-5.1-2.6.8-5.1,1.7-7.6,2.7-5.9,2.4-11.9,3.3-18.2,2.6-3.6-.4-7.2-.8-10.7-.9-4.7-.1-5.1-.6-4.7-5.2.2-2.5.3-5.5-.8-7.6-2.1-4.1-5.3-7.8-7.8-11.7-2-3.1-4.2-6.2-5.2-9.7-1.4-4.8-1.8-5.2-6.3-2.5-5.6,3.5-11.6,5.8-18.4,6-8.8.3-13-4.3-13.8-11.3-.1-1.2-1.2-2.2-1.9-3.3-1,.7-1.9,1.4-2.8,2.1-.5.4-.7,1-1.1,1.5-28,41.9-42.1,88.1-42.4,134.9h0ZM482.7,452.8s-1.2.3-1.8,1c-3.6,4.8-6.4,10.1-7.1,16.2-.6,5.2-2.9,9.1-6.8,12.4-3,2.6-6.1,5.1-8.6,8.1-4.9,5.8-2.6,8.3,2.4,12.1,1,.8,2.1,1.3,3.2,1.8,5,2.4,10.1,4.3,15.8,2.3,10.1-3.6,17.5-10.8,23.8-19.1,3.8-5.1,6.9-10.8,10.4-16.2,4.6-6.9,11.6-11.1,18.4-15.5,3.8-2.5,7.6-5.3,11.8-6.8,2.6-1,3.7-2,4-4.4,1-6.1,2.3-12.3,3-18.5,4.6-39.4.4-77.9-13.2-115.3-8.1-22.3-19.3-43-33.3-62.1-1.5-2.1-2.9-3.1-5.5-1.5-6.5,4-12,1.8-14.5-5.5-1-3.1-2.2-3.5-4.8-1.4-3.4,2.8-7.1,4.1-11.4,3.5-5.8-.7-11.6-1.3-17.4-2.3-4.5-.8-8.9-2.2-13.4-3-4.6-.8-9.2-1.8-13.9-1.7-8.3.1-16.8,1.4-24.5-2.6-10.5-5.5-21-10.9-32.4-14.5-7.2-2.2-13.1-1.5-19.3,2.2-7.4,4.4-14.7,9.4-24.1,8.3-1.2-.1-3,1-4,2-2.6,2.8-2.4,6.4-1,9.5,3.1,6.6,6.6,13,9.9,19.5,2.8,5.4,4.5,11.2,2.9,17.2-2.1,8-6.9,14.6-13,20-7.4,6.5-15,12.7-22.3,19.2-2.8,2.5-4.3,5.6-4.1,9.6.3,4.6.4,9.3,0,13.8-.2,2.1-1.2,4.6-2.7,6.1-1.9,2.1-4.6,3.3-6.8,5.1-1.2,1-2.7,2.5-2.8,3.9-.4,3.4-.3,7-.2,10.5.1,3.5,1.7,6.3,5,7.7,3.3,1.4,6.6,2.7,10.1,3.7,4.1,1.2,8.4,1.9,12.6,3,7.1,1.9,14.2,4.1,21.3,6,1.3.4,2.8,0,4.4,0,0-2.2-.3-3.9,0-5.5.9-4.6,5.4-4.9,8.5-5.3,10.3-1.5,20.7-2.4,31.1-3.1,7.9-.6,15.8-.4,23.7-.9,4-.3,8.1-1.3,12.1-2,2.4-.5,4.8-1.6,7.1-1.7,9.3-.3,18.6,0,27.9,1.9,6.4,1.3,12.1,3.2,17.2,7.4,4.2,3.5,8.5,6.7,13,9.9,5.7,4,10.5,8.8,13.4,15.2,3,6.5,5.6,13.2,8.9,19.6,5.3,10.1,9.5,20.4,8.4,32.3-.6,6.4-5.8,10-11.4,6.7-3.7-2.1-6.6-5.6-10.4-8.9h0ZM245.2,444.6c4.7-.5,8.6-.7,12.5-1.2,7.7-1.1,15.4-2.5,23.1-3.4,4.2-.5,4.6-.5,3.4-4.7-1.3-4.6-.2-6.6,4.6-7.6,2-.5,3.5-1.5,2.8-3.5-.5-1.4-1.9-2.4-3-3.5-.3-.3-1,0-1.5-.1-7.5-1.8-12-3.7-11.2-11.9.4-3.6-1.2-5.9-4.6-7.2-3.1-1.2-6-2.8-9-4.3-2.7-1.4-4.3-.4-4.9,2.4-.5,2.2-.7,4.5-1.3,6.6-3.4,12.4-7,24.8-10.8,38.3h0ZM92.8,524.2c3.8-4.7,7.2-8.6,10.3-12.8,3.5-4.7,2.9-8.3-1.2-12.6-1.8-1.9-3.4-2.1-5.4-.3-3.8,3.5-7.7,6.9-12,10.7,2.6,4.7,5.3,9.5,8.2,14.9ZM159.3,596.7c.2-.2.4-.3.6-.5-.9-3-1.7-6-2.9-8.8-.3-.8-2.1-1.3-3.1-1.2-1.6.2-3.1,1-5.6,1.9,4.1,3.2,7.5,6,10.9,8.6h0Z"/>
          <path class="cls-2" d="M148.3,588c2.4-.9,4-1.7,5.6-1.9,1-.1,2.8.5,3.1,1.2,1.2,2.8,1.9,5.9,2.9,8.8-.2.2-.4.3-.6.5h0"/>
        </g>
      </g>
    </g>
  </g>
</svg>